# File created by Blade
# Date/Time:  Thu Jan 22 16:52:56 2015
# Frame Rate: 120.000 fps
#------------------------------------------------------
:FULLY-SPECIFIED
:DEGREES
2475
root 2.489445 35.432974 -2.024532 0.775347 0.076765 1.185268
RightUpLeg -30.614476 -1.303020 -3.706020
RightLeg 43.497300 -0.000000 -0.000000
RightFoot -31.157180 -23.523132 25.761693
RightToeBase 2.438914 -0.000000 -0.000000
LeftUpLeg -29.184194 0.016796 0.534603
LeftLeg 37.176106 -0.000000 -0.000000
LeftFoot -13.861325 16.429609 -23.918242
LeftToeBase 3.907641 -0.000000 -0.000000
Spine 49.277744 7.294169 2.825621
RightShoulder -1.289113 -19.512013 -11.009411
RightArm 29.643928 -8.318000 58.253756
RightForeArm 15.099029 0.000000 65.341537
RightHand 11.264407 -0.000000 -13.209033
RightHandThumb1 -24.326973 -0.000000 -32.862282
LeftShoulder 22.615695 8.876442 35.890391
LeftArm 26.545346 -1.020411 -83.197998
LeftForeArm 22.891564 -0.000000 75.400504
LeftHand -15.017293 -0.000000 4.025074
LeftHandThumb1 -26.253704 0.000000 33.147579
Head -12.671160 -6.038991 9.275829
2476
root 2.451721 35.596689 -1.906590 0.446512 0.020274 1.064024
RightUpLeg -29.529059 -1.344113 -3.405712
RightLeg 43.655484 -0.000000 -0.000000
RightFoot -30.884491 -22.887393 25.885986
RightToeBase 2.290475 -0.000000 -0.000000
LeftUpLeg -27.874912 0.168970 0.721773
LeftLeg 35.621982 -0.000000 -0.000000
LeftFoot -13.144250 16.440146 -23.900498
LeftToeBase 4.424127 -0.000000 -0.000000
Spine 48.511465 7.295565 2.842926
RightShoulder -1.609475 -19.911658 -10.884242
RightArm 29.494465 -9.388239 58.348893
RightForeArm 14.608386 -0.000000 65.277899
RightHand 10.946957 -0.000000 -12.947437
RightHandThumb1 -24.326973 -0.000000 -32.862282
LeftShoulder 22.435935 9.099258 35.762235
LeftArm 25.951459 -0.184889 -83.277135
LeftForeArm 23.948344 -0.000000 75.134440
LeftHand -14.911405 -0.000000 3.683396
LeftHandThumb1 -26.253704 0.000000 33.147579
Head -12.447454 -5.933782 9.175455
2477
root 2.409748 35.745449 -1.792508 0.130004 0.038751 0.887712
RightUpLeg -28.491697 -1.501535 -3.057343
RightLeg 44.044102 -0.000000 -0.000000
RightFoot -30.668813 -22.065178 25.866645
RightToeBase 2.300699 -0.000000 -0.000000
LeftUpLeg -26.728885 0.198610 0.963454
LeftLeg 34.325404 -0.000000 -0.000000
LeftFoot -12.625705 16.616949 -23.802406
LeftToeBase 5.550635 -0.000000 -0.000000
Spine 47.728003 7.225683 2.953715
RightShoulder -1.985874 -20.310611 -10.821254
RightArm 29.427873 -10.384611 58.570590
RightForeArm 14.027248 -0.000000 65.029219
RightHand 10.775933 0.000000 -12.609132
RightHandThumb1 -24.326973 -0.000000 -32.862282
LeftShoulder 22.227565 9.309751 35.646890
LeftArm 25.418468 0.664953 -83.385274
LeftForeArm 25.043991 0.000000 74.790258
LeftHand -14.848387 -0.000000 3.275080
LeftHandThumb1 -26.253704 0.000000 33.147579
Head -12.204765 -5.817754 9.029090
2478
root 2.371248 35.884095 -1.675769 -0.217495 0.061535 0.749229
RightUpLeg -27.420928 -1.629121 -2.762728
RightLeg 44.520275 -0.000000 -0.000000
RightFoot -30.424029 -21.374125 25.670813
RightToeBase 2.043970 -0.000000 -0.000000
LeftUpLeg -25.569102 0.202649 1.162874
LeftLeg 33.106793 -0.000000 -0.000000
LeftFoot -12.180566 16.754315 -23.835390
LeftToeBase 6.233524 -0.000000 -0.000000
Spine 46.992748 7.169574 3.075154
RightShoulder -2.392861 -20.630184 -10.772944
RightArm 29.303520 -11.368213 58.827297
RightForeArm 13.492436 -0.000000 64.747772
RightHand 10.478891 -0.000000 -12.142058
RightHandThumb1 -24.326973 -0.000000 -32.862282
LeftShoulder 22.024558 9.543148 35.548418
LeftArm 24.972007 1.480815 -83.502360
LeftForeArm 26.135443 -0.000000 74.393318
LeftHand -14.977472 -0.000000 2.898474
LeftHandThumb1 -26.253704 0.000000 33.147579
Head -12.002968 -5.780239 8.861335
